<?xml version="1.0" encoding="UTF-8"?><svg id="Layer_2" xmlns="http://www.w3.org/2000/svg" width="374.5492" height="82" xmlns:xlink="http://www.w3.org/1999/xlink" viewBox="0 0 374.5492 82"><defs><style>.cls-1{fill:#6b7b84;}.cls-2,.cls-3{fill:none;}.cls-4{fill-rule:evenodd;}.cls-4,.cls-5{fill:#a51d36;}.cls-6{clip-path:url(#clippath-1);}.cls-7{clip-path:url(#clippath-2);}.cls-3{stroke:#6b7b84;stroke-linecap:round;stroke-linejoin:round;stroke-width:.9957px;}.cls-8{fill:url(#linear-gradient);}.cls-9{clip-path:url(#clippath);}</style><clipPath id="clippath"><rect class="cls-2" width="374.5492" height="82"/></clipPath><clipPath id="clippath-1"><path class="cls-2" d="M286.3437,14.9787c-1.7195,3.8206-2.4219,8.1307-1.9457,12.3792,1.516,13.5304,13.8291,23.1566,27.4247,21.4393l-20.3719,32.6508,5.1646.0542c2.5744-.177,4.8686-1.5192,6.258-3.7396l20.6179-32.9877.002-9.1216c-2.064,2.1634-4.2828,3.5376-6.9138,4.5084-2.5258.9318-4.9471,1.16-7.6338,1.0895-5.516-.145-10.6252-2.676-13.7917-7.192-3.5076-5.0031-4.0691-11.3838-1.198-16.8335,2.9289-5.5596,8.7964-9.0939,15.1211-8.8695,9.0567.3214,16.1857,7.7412,16.1847,16.7893l-.0022,19.6435c-.0004,6.0013,1.7416,11.6488,5.6016,16.2492,3.832,4.5668,9.0897,7.5904,14.977,8.5305,10.0221,1.6008,19.9222-2.89,25.1623-11.5413,6.7423-11.1316,3.3795-25.7533-7.4504-32.9646-6.0453-4.0878-13.5101-5.3235-20.6374-3.2324l3.1452-12.0596,20.6887.0006c4.3543-.4421,6.264-3.675,7.3969-7.5936l-31.9082-.0024c-1.2569-.0002-2.3253.7633-2.5995,1.9993-1.4147,6.3731-3.513,12.4971-4.6675,18.9531-.2067,1.1566-.2619,2.3143-.2543,3.4729h-.0012v7.5106-.0002.0002c.1665-.2017.3451-.3929.5329-.5757,3.7899-3.6276,8.5465-5.287,13.6877-5.1359,4.7896.141,9.2877,1.8195,12.6941,5.2195,3.7848,3.7776,5.6533,9.0644,4.8147,14.3445-1.3949,8.7824-9.3125,14.9536-18.142,14.0681-6.0957-.6115-11.2929-4.3573-13.8323-9.906-1.0807-2.3615-1.3999-4.7297-1.4019-7.3489l-.0151-20.2747c-.0062-8.2715-4.6219-15.9404-11.4893-20.259-4.0526-2.5485-8.5158-3.7451-12.9053-3.7455-9.2524-.0008-18.1856,5.3125-22.3123,14.4809"/></clipPath><linearGradient id="linear-gradient" x1="-892.2722" y1="-234.5628" x2="-892.0731" y2="-234.5628" gradientTransform="translate(106609.9213 404267.5917) rotate(90) scale(453.0944 -453.0944)" gradientUnits="userSpaceOnUse"><stop offset="0" stop-color="#a11d33"/><stop offset=".1439" stop-color="#9b1e35"/><stop offset=".3258" stop-color="#8b213b"/><stop offset=".5283" stop-color="#712746"/><stop offset=".7456" stop-color="#4d3055"/><stop offset=".9725" stop-color="#203a68"/><stop offset="1" stop-color="#1a3c6b"/></linearGradient><clipPath id="clippath-2"><rect class="cls-2" width="374.5492" height="82"/></clipPath></defs><g id="Layer_1-2"><g class="cls-9"><line class="cls-3" x1="260.3562" y1="81.5022" x2="260.3562" y2=".4978"/><path class="cls-4" d="M26.5108.4979L4.8228,48.5265C3.797,50.8731,1.7766,51.9392,0,51.9392v.8949h10.8204v-.8949c-1.879,0-3.9387-.9877-3.3962-2.2823.1808-.4355.2963-.6926.5333-1.3209L24.5772,10.6269l18.512,37.8996c.2796.5641.6663,1.2089.6663,1.6803,0,1.3493-1.9169,1.7325-3.5127,1.7325v.8949h16.388v-.8949c-1.6875,0-3.6077-.6972-4.8167-3.4128L27.5305.4979h-1.0198Z"/><path class="cls-4" d="M106.875,55.0808l16.3737-37.4119c.7997-1.8303,2.2823-2.4846,4.1243-2.4846v-.883h-9.3625v.883c1.4541,0,2.7276.5094,2.7276,1.2374,0,.3592-.2119.7997-.4405,1.2472l-11.6613,27.3163-12.5419-27.3163c-.2193-.4475-.5118-.9521-.5118-1.3235,0-.7971,1.4921-1.1612,2.7465-1.1612v-.883h-11.6163s.5544,1.247,1.5088,3.3676l17.8634,37.4119h.7902Z"/><path class="cls-4" d="M139.3796,52.7103v-.883c-1.3898,0-2.5917-.74-2.5917-1.7683V16.9357c0-1.0281,1.1351-1.7514,2.9273-1.7514v-.883h-12.8442v.883c1.6375,0,2.951.7233,2.951,1.7514v33.1233c0,1.0283-1.3185,1.7683-2.9605,1.7683v.883h12.5182Z"/><path class="cls-4" d="M197.387,50.059c0,1.0283-1.1518,1.7683-2.5011,1.7683v.8734h23.2086c11.4212,0,18.3656-8.0486,18.3656-19.2438s-8.1391-19.2579-19.7006-19.2579h-21.8736v.8854c1.3493,0,2.5011.7376,2.5011,1.7514v33.2233ZM204.3649,16.5217h11.2641c8.6034,0,13.6772,7.5538,13.6772,16.9352,0,9.3721-4.2266,16.9307-12.4135,16.9307h-12.5278V16.5217Z"/><path class="cls-5" d="M167.3742,15.3176c-7.9274.057-12.3231,4.1504-12.3231,11.0165v23.7488c0,1.0327,1.2042,1.7633,2.5989,1.7633v.8736h-12.154v-.8736c1.3874,0,2.5939-.7306,2.5939-1.7633v-21.3168c0-11.4544,7.9013-15.7048,19.2366-15.7428,11.3831.038,19.2938,4.2884,19.2938,15.7428v21.3168c0,1.0327,1.2042,1.7633,2.58,1.7633v.8736h-12.1401v-.8736c1.3852,0,2.5941-.7306,2.5941-1.7633v-23.7488c0-6.8662-4.4005-10.9596-12.2802-11.0165"/><path class="cls-5" d="M59.0441,31.8554c0-1.9491-.0882-4.0171.6094-6.4542,1.9681-6.9709,8.7627-11.9901,16.8422-12.3328.6522-.0309,1.2661-.045,1.9539-.0309.8139.0309,1.4161.0785,2.0513.1808l1.2615.1334c1.0234.1047,1.8755-1.0234,2.018-2.3966l.8734-.0096.0311,11.6757h-.8756c.0046-1.5136-.4524-5.9187-3.5177-6.8088-.3999-.1284-.7376-.2212-1.109-.2999-.4379-.095-.8949-.1523-1.4304-.1808-1.0447-.0237-2.106.1-2.6652.1928-7.1472,1.0686-9.0698,7.0422-9.0698,12.5206v22.1617c0,1.0208,1.2828,1.7468,2.9938,1.7468v.8804h-12.5563v-.8854c1.3945,0,2.5894-.7211,2.5894-1.7418v-18.3515Z"/><polygon class="cls-5" points=".0329 70.281 8.2441 70.281 8.2441 72.0461 1.9711 72.0461 1.9711 75.0564 7.5347 75.0564 7.5347 76.8216 1.9711 76.8216 1.9711 81.3131 .0329 81.3131 .0329 70.281"/><path class="cls-5" d="M13.8045,70.2024h1.7966l4.8541,11.1107h-2.0487l-1.1193-2.6632h-5.2163l-1.1347,2.6632h-1.9858l4.8541-11.1107ZM16.5783,76.9317l-1.9067-4.4128-1.8912,4.4128h3.7979Z"/><path class="cls-5" d="M22.0756,79.7055l1.1657-1.387c1.0562.9142,2.1124,1.434,3.4833,1.434,1.1978,0,1.9543-.5514,1.9543-1.3868v-.0311c0-.7886-.4413-1.2137-2.4902-1.6867-2.348-.5673-3.6719-1.2607-3.6719-3.2935v-.0321c0-1.8912,1.576-3.1991,3.7664-3.1991,1.6074,0,2.8839.4885,4.003,1.387l-1.0401,1.4658c-.9927-.741-1.9858-1.1347-2.9944-1.1347-1.1349,0-1.7968.5829-1.7968,1.3079v.0315c0,.8511.5044,1.2293,2.6162,1.7337,2.3325.5673,3.5458,1.4027,3.5458,3.231v.0311c0,2.0648-1.6231,3.2941-3.9395,3.2941-1.6867,0-3.2782-.5833-4.602-1.7651"/><polygon class="cls-5" points="33.373 70.281 35.3112 70.281 35.3112 74.8675 40.5755 74.8675 40.5755 70.281 42.5139 70.281 42.5139 81.3131 40.5755 81.3131 40.5755 76.6637 35.3112 76.6637 35.3112 81.3131 33.373 81.3131 33.373 70.281"/><rect class="cls-5" x="45.9305" y="70.2809" width="1.9388" height="11.0321"/><path class="cls-5" d="M50.7991,75.8285v-.0315c0-3.1051,2.3956-5.7052,5.7837-5.7052s5.7528,2.569,5.7528,5.6736v.0317c0,3.1049-2.3956,5.705-5.7843,5.705s-5.7522-2.569-5.7522-5.6736M60.3022,75.8285v-.0315c0-2.1435-1.56-3.9246-3.7509-3.9246s-3.7194,1.7496-3.7194,3.8929v.0317c0,2.1433,1.5606,3.9244,3.7509,3.9244s3.7194-1.7496,3.7194-3.8929"/><polygon class="cls-5" points="65.1526 70.281 66.9492 70.281 72.8596 77.9089 72.8596 70.281 74.7663 70.281 74.7663 81.3131 73.1427 81.3131 67.0598 73.4646 67.0598 81.3131 65.1526 81.3131 65.1526 70.281"/><rect class="cls-5" x="78.1832" y="70.2809" width="1.9382" height="11.0321"/><polygon class="cls-5" points="83.5399 70.281 85.337 70.281 91.2464 77.9089 91.2464 70.281 93.1539 70.281 93.1539 81.3131 91.5303 81.3131 85.4466 73.4646 85.4466 81.3131 83.5399 81.3131 83.5399 70.281"/><path class="cls-5" d="M95.9716,75.8285v-.0315c0-3.089,2.3635-5.7052,5.6891-5.7052,1.9232,0,3.1045.5359,4.2394,1.4975l-1.2289,1.4654c-.8515-.7251-1.6867-1.1823-3.089-1.1823-2.0328,0-3.5779,1.7811-3.5779,3.8929v.0317c0,2.2693,1.4975,3.9399,3.7505,3.9399,1.0407,0,1.9862-.3306,2.664-.835v-2.0648h-2.8211v-1.6865h4.696v4.6339c-1.0873.9296-2.6477,1.7175-4.601,1.7175-3.4516,0-5.7211-2.4585-5.7211-5.6736"/><path class="cls-5" d="M117.0052,70.281h4.3507c2.5683,0,4.1916,1.4654,4.1916,3.6878v.0317c0,2.4741-1.9862,3.7668-4.4128,3.7668h-2.1909v3.5458h-1.9386v-11.0321ZM121.1977,76.0177c1.4654,0,2.3801-.8194,2.3801-1.9698v-.0319c0-1.292-.9302-1.9698-2.3801-1.9698h-2.254v3.9715h2.254Z"/><path class="cls-5" d="M127.5155,75.8285v-.0315c0-3.1051,2.3954-5.7052,5.7833-5.7052s5.753,2.569,5.753,5.6736v.0317c0,3.1049-2.3954,5.705-5.7841,5.705s-5.7522-2.569-5.7522-5.6736M137.019,75.8285v-.0315c0-2.1435-1.5604-3.9246-3.7513-3.9246s-3.7195,1.7496-3.7195,3.8929v.0317c0,2.1433,1.5604,3.9244,3.7505,3.9244s3.7202-1.7496,3.7202-3.8929"/><path class="cls-5" d="M141.1285,79.7055l1.1657-1.387c1.0562.9142,2.1124,1.434,3.4829,1.434,1.1986,0,1.9551-.5514,1.9551-1.3868v-.0311c0-.7886-.4423-1.2137-2.4906-1.6867-2.348-.5673-3.6719-1.2607-3.6719-3.2935v-.0321c0-1.8912,1.576-3.1991,3.7668-3.1991,1.6072,0,2.8835.4885,4.0026,1.387l-1.0407,1.4658c-.9921-.741-1.9852-1.1347-2.9938-1.1347-1.1349,0-1.7972.5829-1.7972,1.3079v.0315c0,.8511.5044,1.2293,2.6166,1.7337,2.3325.5673,3.5458,1.4027,3.5458,3.231v.0311c0,2.0648-1.6235,3.2941-3.9395,3.2941-1.6867,0-3.2782-.5833-4.602-1.7651"/><path class="cls-5" d="M151.6855,79.7055l1.1657-1.387c1.0562.9142,2.1124,1.434,3.4837,1.434,1.197,0,1.9533-.5514,1.9533-1.3868v-.0311c0-.7886-.4403-1.2137-2.4896-1.6867-2.348-.5673-3.6719-1.2607-3.6719-3.2935v-.0321c0-1.8912,1.576-3.1991,3.7661-3.1991,1.608,0,2.8843.4885,4.0034,1.387l-1.0397,1.4658c-.9931-.741-1.9862-1.1347-2.9948-1.1347-1.1349,0-1.7962.5829-1.7962,1.3079v.0315c0,.8511.5042,1.2293,2.6156,1.7337,2.3325.5673,3.5458,1.4027,3.5458,3.231v.0311c0,2.0648-1.6225,3.2941-3.9395,3.2941-1.6867,0-3.2782-.5833-4.602-1.7651"/><rect class="cls-5" x="163.0931" y="70.2809" width="1.9388" height="11.0321"/><path class="cls-5" d="M168.4496,70.2811h4.9491c1.2609,0,2.254.3467,2.8845.977.4879.4885.74,1.0877.74,1.8283v.0315c0,1.3238-.7565,2.0328-1.5752,2.4585,1.292.4413,2.1901,1.1823,2.1901,2.6794v.0315c0,1.9698-1.6236,3.0259-4.0813,3.0259h-5.1072v-11.0319ZM173.005,74.9305c1.2444,0,2.0804-.4889,2.0804-1.4975v-.0315c0-.8666-.6936-1.4029-1.9388-1.4029h-2.7893v2.9319h2.6477ZM173.5724,79.5954c1.3238,0,2.1278-.5203,2.1278-1.513v-.0319c0-.9298-.7408-1.481-2.2694-1.481h-3.0734v3.0259h3.215Z"/><rect class="cls-5" x="180.4081" y="70.2809" width="1.9388" height="11.0321"/><polygon class="cls-5" points="185.7647 70.281 187.7035 70.281 187.7035 79.5479 193.5031 79.5479 193.5031 81.3131 185.7647 81.3131 185.7647 70.281"/><rect class="cls-5" x="196.1016" y="70.2809" width="1.9388" height="11.0321"/><polygon class="cls-5" points="204.1688 72.0776 200.6706 72.0776 200.6706 70.281 209.6223 70.281 209.6223 72.0776 206.1239 72.0776 206.1239 81.3131 204.1688 81.3131 204.1688 72.0776"/><rect class="cls-5" x="212.2508" y="70.2809" width="1.9388" height="11.0321"/><polygon class="cls-5" points="217.6083 70.281 225.7871 70.281 225.7871 72.0147 219.546 72.0147 219.546 74.883 225.078 74.883 225.078 76.6165 219.546 76.6165 219.546 79.5794 225.8656 79.5794 225.8656 81.3131 217.6083 81.3131 217.6083 70.281"/><path class="cls-5" d="M227.8966,79.7055l1.1657-1.387c1.0562.9142,2.1124,1.434,3.4837,1.434,1.197,0,1.9533-.5514,1.9533-1.3868v-.0311c0-.7886-.4403-1.2137-2.4896-1.6867-2.348-.5673-3.6718-1.2607-3.6718-3.2935v-.0321c0-1.8912,1.5759-3.1991,3.766-3.1991,1.608,0,2.8843.4885,4.0034,1.387l-1.0397,1.4658c-.9931-.741-1.9862-1.1347-2.9948-1.1347-1.1349,0-1.7962.5829-1.7962,1.3079v.0315c0,.8511.5042,1.2293,2.6156,1.7337,2.3325.5673,3.5458,1.4027,3.5458,3.231v.0311c0,2.0648-1.6225,3.2941-3.9395,3.2941-1.6867,0-3.2782-.5833-4.602-1.7651"/></g><g class="cls-6"><rect class="cls-8" x="272.5482" y="-19.7342" width="116.5681" height="121.4676" transform="translate(133.0997 309.3889) rotate(-60.6841)"/></g><g class="cls-7"><polygon class="cls-1" points="308.9863 78.7399 308.9863 76.9198 306.9641 73.8587 308.3447 73.8587 309.6207 75.8602 310.9039 73.8587 312.2077 73.8587 310.1857 76.9198 310.1857 78.7399 308.9863 78.7399"/><polygon class="cls-1" points="312.6401 78.7399 312.6401 73.8587 316.4892 73.8587 316.4892 74.8978 313.8395 74.8978 313.8395 75.7764 315.5897 75.7764 315.5897 76.7804 313.8395 76.7804 313.8395 77.701 316.5171 77.701 316.5171 78.7399 312.6401 78.7399"/><path class="cls-1" d="M316.9088,78.7398l2.0013-4.881h1.3736l1.9734,4.881h-1.297l-.4463-1.1783h-1.9035l-.4534,1.1783h-1.2482ZM318.9729,76.6061h1.1854l-.5856-1.562-.5998,1.562Z"/><path class="cls-1" d="M322.6993,78.7398v-4.881h2.4964c.3346,0,.6323.0661.8925.1985.2602.1326.4636.3164.6101.551.1464.2348.2194.5032.2194.8053,0,.3069-.0834.5813-.2509.8228-.1673.2419-.3881.4254-.6623.551l1.067,1.9523h-1.339l-.9204-1.7781h-.9134v1.7781h-1.1994ZM323.8987,75.9856h1.1854c.1858,0,.3356-.051.4497-.1533.1139-.1024.1709-.2348.1709-.3975,0-.1629-.057-.2953-.1709-.3977-.1141-.1022-.2638-.1533-.4497-.1533h-1.1854v1.1018Z"/><path class="cls-1" d="M329.4589,78.8097c-.3951,0-.7856-.0721-1.1713-.2163-.3861-.144-.7298-.3439-1.0321-.5998l.6695-.8716c.2973.2417.5717.415.8226.5197.2511.1043.5183.1567.8021.1567.1858,0,.3439-.0183.4741-.0558.1301-.0372.23-.0916.2997-.1639.0699-.0721.1047-.1567.1047-.2545,0-.1348-.0514-.2394-.1533-.3138-.1023-.0743-.2768-.1324-.5231-.1742l-1.0737-.1882c-.3953-.0699-.6998-.2208-.9136-.4532-.2137-.2326-.3206-.5275-.3206-.8856,0-.3162.08-.588.2406-.8161.1603-.2276.3905-.4019.6902-.5229.2999-.1207.6567-.1814,1.0704-.1814.3626,0,.7276.0619,1.0949.185.3672.1233.6856.2939.9552.5124l-.6346.8856c-.502-.3857-1.0017-.5787-1.4991-.5787-.1627,0-.3033.0175-.4218.0524-.1185.0348-.2093.0836-.272.1464-.0627.0629-.0942.1384-.0942.2266,0,.1211.0454.2141.136.279.0908.0651.2382.1161.4427.1533l1.0112.1675c.4695.0743.8262.23,1.0704.4672.2439.237.366.5438.366.9204,0,.3302-.086.6147-.2579.8541-.1721.2396-.4184.4244-.7392.5544-.3206.1302-.702.1954-1.1436.1954"/><path class="cls-1" d="M336.1112,78.8167c-.3674,0-.7091-.0641-1.025-.192-.3164-.1278-.5928-.3067-.83-.5369-.237-.23-.4218-.4972-.5544-.8017-.1324-.3045-.1985-.6334-.1985-.9867s.0661-.6822.1985-.9867c.1326-.3045.3174-.5719.5544-.8019.2372-.2302.5136-.409.83-.5369.3158-.1278.6575-.192,1.025-.192.3672,0,.7089.0641,1.0249.192.316.1278.5926.3067.8298.5369.2372.23.4218.4974.5544.8019s.1987.6334.1987.9867-.0661.6822-.1987.9867c-.1326.3045-.3172.5717-.5544.8017-.2372.2302-.5138.409-.8298.5369-.316.1278-.6577.192-1.0249.192M336.1112,77.7149c.1953,0,.3766-.0358.5438-.1081.1675-.0719.3126-.1709.4359-.2963.1231-.1255.2197-.2754.2891-.4498.0699-.1742.1047-.3614.1047-.5612,0-.2045-.0349-.3929-.1047-.5649-.0695-.1719-.1661-.3208-.2891-.4463-.1233-.1255-.2684-.2242-.4359-.2963-.1673-.0721-.3485-.1081-.5438-.1081s-.3766.036-.5439.1081c-.1675.0721-.3128.1709-.4359.2963-.1233.1255-.2197.2744-.2893.4463-.0699.1721-.1046.358-.1046.558,0,.2045.0346.3939.1046.5681.0697.1744.1661.3244.2893.4498.1231.1255.2684.2244.4359.2963.1673.0723.3485.1081.5439.1081"/><polygon class="cls-1" points="339.4366 78.7399 339.4366 73.8587 343.3136 73.8587 343.3136 74.8978 340.636 74.8978 340.636 75.8112 342.421 75.8112 342.421 76.8152 340.636 76.8152 340.636 78.7399 339.4366 78.7399"/><polygon class="cls-1" points="345.5101 78.7399 345.5101 73.8587 346.7095 73.8587 346.7095 77.6799 349.2825 77.6799 349.2825 78.7399 345.5101 78.7399"/><polygon class="cls-1" points="349.8745 78.7399 349.8745 73.8587 353.7236 73.8587 353.7236 74.8978 351.0739 74.8978 351.0739 75.7764 352.8241 75.7764 352.8241 76.7804 351.0739 76.7804 351.0739 77.701 353.7515 77.701 353.7515 78.7399 349.8745 78.7399"/><path class="cls-1" d="M356.7973,78.8166c-.3674,0-.7091-.0639-1.025-.1918-.3164-.1278-.594-.3069-.8334-.5371-.2396-.23-.4253-.4972-.558-.8017-.1324-.3045-.1986-.6334-.1986-.9867s.0661-.6822.1986-.9867c.1326-.3045.3162-.5719.551-.8019.2346-.2302.51-.409.8264-.5369.3158-.1278.6554-.192,1.018-.192.4136,0,.8041.085,1.1713.2545.3672.1701.6671.4036.8997.701l-.8437.7601c-.1581-.2045-.3407-.358-.5476-.4604-.2067-.102-.4333-.1533-.6797-.1533-.1953,0-.3756.036-.5405.1081-.1651.0723-.3093.1709-.4323.2963-.1232.1257-.2186.2744-.2857.4463-.0677.1721-.1012.3604-.1012.5649s.0347.3939.1046.5681c.0697.1744.1683.3256.2963.4534.1278.1278.2764.2278.4463.2997.1697.0723.3545.1081.5544.1081.1906,0,.3636-.0325.5193-.0976.1559-.0651.2896-.1557.4011-.272.1115-.1161.1906-.2487.2372-.3975h-1.3181v-1.0389h2.6148v.3485c0,.3674-.0615.7055-.1846,1.0148-.1233.3091-.2953.5787-.5162.8087-.2206.2302-.4821.408-.7844.5335-.3021.1257-.6322.1884-.9901.1884"/><path class="cls-1" d="M359.2601,78.7398l2.0013-4.881h1.3738l1.9734,4.881h-1.2971l-.4463-1.1783h-1.9035l-.4534,1.1783h-1.2482ZM361.3241,76.6061h1.1854l-.5856-1.562-.5998,1.562Z"/><path class="cls-1" d="M367.2214,78.8097c-.372,0-.7173-.0639-1.0355-.1918-.3186-.1278-.5962-.3057-.8334-.5335-.237-.2278-.4218-.4939-.5542-.7983-.1326-.3045-.1987-.6334-.1987-.9867,0-.3578.0661-.6892.1987-.9937.1324-.3045.3182-.5705.5578-.7985.2394-.2276.5182-.4054.8368-.5333.3182-.1278.6611-.192,1.0285-.192.2694,0,.5345.0398.7949.1187.2603.0791.5008.1896.7215.3312.2208.142.4058.3105.5546.5056l-.8091.7949c-.1718-.2185-.3638-.3811-.5751-.4881-.2117-.1069-.4405-.1605-.6868-.1605-.1952,0-.3778.0362-.5474.1081-.1699.0723-.3172.1709-.4429.2965-.1255.1255-.223.2742-.2927.4461-.0699.1721-.1045.3604-.1045.5649,0,.1997.0358.3847.1079.5542.0721.1699.1718.3186.2999.4465.1276.1278.2788.2266.4532.2963.1742.0697.3636.1045.5681.1045.2372,0,.4568-.051.6591-.1533.2021-.1022.3845-.2533.5472-.4534l.7882.774c-.149.1908-.3326.3568-.551.4986-.2186.142-.4556.2511-.7113.3278-.2557.0767-.5136.1151-.7738.1151"/><polygon class="cls-1" points="371.3277 78.7399 371.3277 76.9198 369.3055 73.8587 370.6861 73.8587 371.9622 75.8602 373.2454 73.8587 374.5491 73.8587 372.5271 76.9198 372.5271 78.7399 371.3277 78.7399"/></g></g></svg>